<?xml version="1.0" encoding="utf-8"?>
<!-- Generator: Adobe Illustrator 21.0.0, SVG Export Plug-In . SVG Version: 6.00 Build 0)  -->
<svg version="1.1" id="Layer_1" xmlns="http://www.w3.org/2000/svg" xmlns:xlink="http://www.w3.org/1999/xlink" x="0px" y="0px"
	 viewBox="0 0 156 35.8" style="enable-background:new 0 0 156 35.8;" xml:space="preserve">
<style type="text/css">
	.st0{fill:#FFFFFF;}
</style>
<title>ns</title>
<path class="st0" d="M11.4,35.5C-5.1,38,1.2,25.6,1.2,25.6c1.3-2.5,2.9-4.9,4.7-7.1C5.3,17,5,15.4,5,13.8c0-7.2,5.8-13.1,13-13.1
	c2.9,0,5.8,1,8.1,2.7C29,2,32,0.8,35.2,0C16.5,8.2,8.9,17.5,5.8,21.6C-4.3,36.9,10.6,35.5,11.4,35.5z"/>
<path class="st0" d="M27.5,27.8c0,0-6.9,0.9-12.6-1.4l0,0l-0.8-0.2c1.1-3.2,5.3-13.3,15-19.4c3.8,6.1,2,14.2-4.1,18
	c-0.2,0.1-0.3,0.2-0.5,0.3C25.2,26.2,26.3,27.2,27.5,27.8z"/>
<path class="st0" d="M11.2,33.1c0,0-8.5-5.9,12.3-24.5C23.4,8.6-0.9,28.2,11.2,33.1z"/>
<path class="st0" d="M55.4,10.8l-2.1,1.9c-1.2-1.4-2.9-2.2-4.8-2.2c-2.9,0-5.3,2.3-5.3,5.2c0,0,0,0.1,0,0.1c0,1,0.2,1.9,0.7,2.8
	c0.4,0.8,1.1,1.5,1.9,1.9c0.8,0.5,1.8,0.7,2.8,0.7c0.8,0,1.6-0.1,2.3-0.5c0.9-0.4,1.7-1,2.3-1.8l2,2.1c-0.9,1-2,1.8-3.3,2.3
	c-1.1,0.5-2.3,0.7-3.5,0.6c-2.2,0.1-4.4-0.7-6-2.3c-1.6-1.6-2.4-3.7-2.3-5.9c0-1.5,0.3-2.9,1.1-4.1c0.7-1.2,1.8-2.2,3-2.9
	c1.3-0.7,2.8-1.1,4.2-1.1c2.6,0,5.1,1.2,6.8,3.1L55.4,10.8z"/>
<path class="st0" d="M57.3,7.7h2.9v16h-2.9V7.7z"/>
<path class="st0" d="M71.4,12.1h2.9v11.6h-2.9v-1.2c-0.5,0.5-1.1,0.9-1.7,1.2c-0.6,0.2-1.2,0.4-1.8,0.4c-1.5,0-2.9-0.6-3.9-1.7
	c-1.1-1.2-1.7-2.7-1.6-4.3c-0.1-1.6,0.5-3.2,1.5-4.4c1-1.1,2.4-1.7,3.8-1.7c0.7,0,1.4,0.1,2,0.4c0.6,0.3,1.2,0.7,1.7,1.2L71.4,12.1z
	 M68.4,14.5c-0.9,0-1.7,0.4-2.2,1c-0.6,0.7-0.9,1.5-0.9,2.4c0,0.9,0.3,1.8,0.9,2.5c0.6,0.6,1.4,1,2.2,1c0.9,0,1.7-0.4,2.3-1
	c0.6-0.7,0.9-1.6,0.9-2.5c0-0.9-0.3-1.8-0.9-2.4C70.1,14.8,69.2,14.5,68.4,14.5L68.4,14.5z"/>
<path class="st0" d="M84.3,13.8l-1.8,1.8c-0.5-0.6-1.2-1-2-1.1c-0.3,0-0.5,0.1-0.8,0.2c-0.2,0.1-0.3,0.3-0.3,0.5
	c0,0.2,0.1,0.3,0.2,0.4c0.3,0.2,0.6,0.4,0.9,0.5l1.1,0.5c0.9,0.4,1.7,0.9,2.3,1.7c1,1.4,0.8,3.4-0.5,4.6c-0.8,0.7-1.9,1.1-3,1
	c-1.6,0-3.1-0.7-4-2l1.8-1.9c0.3,0.4,0.7,0.7,1.2,1c0.4,0.2,0.8,0.3,1.2,0.4c0.3,0,0.7-0.1,0.9-0.3c0.2-0.1,0.3-0.4,0.3-0.6
	c0-0.4-0.4-0.9-1.3-1.3l-1-0.5c-1.9-0.9-2.8-2.1-2.8-3.5c0-0.9,0.4-1.8,1.1-2.3c0.7-0.7,1.7-1,2.7-1C82,11.8,83.4,12.5,84.3,13.8z"
	/>
<path class="st0" d="M93.9,13.8l-1.8,1.8c-0.5-0.6-1.2-1-2-1.1c-0.3,0-0.5,0.1-0.8,0.2c-0.2,0.1-0.3,0.3-0.3,0.5
	c0,0.2,0.1,0.3,0.2,0.4c0.3,0.2,0.6,0.4,0.9,0.5l1.1,0.5c0.9,0.4,1.7,1,2.3,1.7c1,1.5,0.7,3.4-0.6,4.6c-0.8,0.7-1.9,1.1-3,1
	c-1.6,0-3.1-0.7-4-2l1.8-1.9c0.3,0.4,0.7,0.7,1.2,1c0.4,0.2,0.8,0.3,1.2,0.4c0.3,0,0.7-0.1,0.9-0.3c0.2-0.1,0.3-0.4,0.3-0.6
	c0-0.4-0.4-0.9-1.3-1.3l-1-0.5c-1.9-0.9-2.8-2.1-2.8-3.5c0-0.9,0.4-1.8,1.1-2.3c0.7-0.7,1.7-1,2.7-1C91.6,11.8,93,12.5,93.9,13.8z"
	/>
<path class="st0" d="M97.5,7.4c0.5,0,1,0.2,1.3,0.6c0.4,0.4,0.6,0.8,0.5,1.3c0,0.5-0.2,1-0.5,1.3c-0.3,0.4-0.8,0.6-1.3,0.6
	c-0.5,0-1-0.2-1.3-0.6c-0.4-0.4-0.6-0.8-0.5-1.4C95.6,8.2,96.5,7.4,97.5,7.4C97.5,7.4,97.5,7.4,97.5,7.4z M96,12.1h2.9v11.6H96
	L96,12.1z"/>
<path class="st0" d="M118.7,10.6l-2.1,2.1c-1.2-1.3-2.9-2.1-4.6-2.1c-1.4,0-2.8,0.5-3.9,1.5c-1,1-1.6,2.3-1.6,3.7
	c0,1.4,0.6,2.8,1.6,3.8c1.1,1,2.5,1.6,4,1.6c0.9,0,1.8-0.2,2.6-0.6c0.8-0.5,1.3-1.2,1.7-2h-4.6v-2.8h7.9v0.7c0,1.4-0.4,2.7-1.1,3.9
	c-0.6,1.2-1.6,2.1-2.8,2.8c-1.2,0.7-2.6,1-4,1c-1.5,0-3-0.3-4.3-1.1c-1.3-0.7-2.3-1.7-3-3c-0.7-1.3-1.1-2.8-1.1-4.3
	c0-2,0.7-3.9,2-5.4c1.6-1.8,3.9-2.8,6.4-2.7c1.3,0,2.6,0.2,3.8,0.8C116.8,8.9,117.8,9.7,118.7,10.6z"/>
<path class="st0" d="M121.5,12.1h2.5v1.4c0.2-0.5,0.6-1,1.1-1.3c0.4-0.3,0.9-0.5,1.5-0.4c0.4,0,0.8,0.1,1.2,0.3l-0.9,2.5
	c-0.3-0.1-0.5-0.2-0.8-0.3c-0.5,0-0.9,0.4-1.1,0.8c-0.4,1-0.5,2.1-0.5,3.3v5.2h-2.9L121.5,12.1z"/>
<path class="st0" d="M130.3,7.4c0.5,0,1,0.2,1.3,0.6c0.4,0.4,0.6,0.8,0.5,1.3c0,0.5-0.2,1-0.5,1.3c-0.3,0.4-0.8,0.6-1.3,0.6
	c-0.5,0-1-0.2-1.3-0.6c-0.4-0.4-0.6-0.8-0.5-1.4C128.4,8.2,129.2,7.4,130.3,7.4C130.3,7.4,130.3,7.4,130.3,7.4z M128.8,12.1h2.9
	v11.6h-2.9V12.1z"/>
<path class="st0" d="M142.9,7.7h2.9v16h-2.9v-1.2c-0.5,0.5-1.1,0.9-1.7,1.2c-0.6,0.2-1.2,0.4-1.9,0.4c-1.5,0-2.9-0.6-3.9-1.7
	c-1.1-1.2-1.7-2.7-1.6-4.3c-0.1-1.6,0.5-3.2,1.6-4.4c1-1.1,2.4-1.7,3.8-1.7c0.7,0,1.4,0.1,2,0.4c0.6,0.3,1.2,0.7,1.6,1.2V7.7z
	 M139.9,14.5c-0.9,0-1.7,0.4-2.2,1c-0.6,0.7-0.9,1.5-0.9,2.4c0,0.9,0.3,1.8,0.9,2.5c0.6,0.6,1.4,1,2.2,1c0.9,0,1.7-0.4,2.3-1
	c0.6-0.7,0.9-1.6,0.9-2.5c0-0.9-0.3-1.8-0.9-2.4C141.6,14.8,140.7,14.5,139.9,14.5L139.9,14.5z"/>
<path class="st0" d="M155.8,13.8l-1.8,1.8c-0.5-0.6-1.2-1-2-1.1c-0.3,0-0.5,0.1-0.8,0.2c-0.2,0.1-0.3,0.3-0.3,0.5
	c0,0.2,0.1,0.3,0.2,0.4c0.3,0.2,0.6,0.4,0.9,0.5l1.1,0.5c0.9,0.4,1.7,1,2.3,1.7c1,1.4,0.8,3.4-0.5,4.6c-0.8,0.7-1.9,1.1-3,1
	c-1.6,0-3.1-0.7-4-2l1.8-1.9c0.3,0.4,0.7,0.7,1.2,1c0.4,0.2,0.8,0.3,1.2,0.4c0.3,0,0.7-0.1,0.9-0.3c0.2-0.1,0.3-0.4,0.4-0.6
	c0-0.4-0.4-0.9-1.3-1.3l-1-0.5c-1.9-0.9-2.8-2.1-2.8-3.5c0-0.9,0.4-1.8,1.1-2.3c0.7-0.7,1.7-1,2.7-1
	C153.5,11.8,154.9,12.5,155.8,13.8L155.8,13.8z"/>
</svg>
